<?xml version="1.0" ?><!DOCTYPE svg  PUBLIC '-//W3C//DTD SVG 1.1//EN'  'http://www.w3.org/Graphics/SVG/1.1/DTD/svg11.dtd'><svg width="32px" height="32px" viewBox="0 0 32 32" enable-background="new 0 0 32 32" version="1.1" xml:space="preserve" xmlns="http://www.w3.org/2000/svg" xmlns:xlink="http://www.w3.org/1999/xlink"><g id="Layer_2"/><g id="Layer_3"/><g id="Layer_4"/><g id="Layer_5"/><g id="Layer_6"/><g id="Layer_7"/><g id="Layer_8"/><g id="Layer_9"/><g id="Layer_10"/><g id="Layer_11"/><g id="Layer_12"/><g id="Layer_13"/><g id="Layer_14"/><g id="Layer_15"/><g id="Layer_16"/><g id="Layer_17"/><g id="Layer_18"/><g id="Layer_19"/><g id="Maps_11_"/><g id="Maps_10_"/><g id="Maps_9_"/><g id="Maps_8_"/><g id="Maps_7_"/><g id="Maps_6_"/><g id="Maps_5_"/><g id="Maps_4_"><g><path d="M31,17c0,7.72-6.28,14-14,14c-3.05,0-5.95-0.97-8.39-2.8c-0.41-0.3-0.73-0.57-1.02-0.85    c-0.35-0.35-0.4-0.9-0.11-1.3c1.72-2.4,4.07-4.08,6.98-5c8.0099-2.54,11.37-7.54,9.46-14.1c-0.12-0.41,0.04-0.86,0.39-1.1    c0.36-0.25,0.82-0.24,1.17,0.02c0.47,0.35,0.91,0.74,1.35,1.17C29.52,9.69,31,13.23,31,17z" fill="#16BCD4"/></g><g><path d="M15.06,22.95c-2.48,0.79-4.49,2.22-5.96,4.26c-0.16,0.23-0.42,0.38-0.7,0.41    c-0.04,0.01-0.07,0.01-0.11,0.01c-0.25,0-0.48-0.09-0.67-0.26C4.68,24.74,3,20.96,3,17c0-1.44,0.21-2.84,0.64-4.16    c0.05-0.15,0.13-0.29,0.24-0.4l8.4-8.5c0.11-0.11,0.24-0.2,0.39-0.25C14.05,3.23,15.5,3,17,3c3.11,0,6.05,1,8.49,2.88    c0.17,0.13,0.29,0.31,0.35,0.51C26.89,10.01,27.95,18.87,15.06,22.95z" fill="#2197F3"/></g><g><g><path d="M8,1C4.14,1,1,4.09,1,7.89c0,3.58,5.66,9.2,6.3,9.83C7.5,17.91,7.75,18,8,18s0.5-0.09,0.7-0.28     C9.34,17.09,15,11.47,15,7.89C15,4.09,11.86,1,8,1z" fill="#3F51B5"/><path d="M10,7.89c0,1.11-0.9,2-2,2S6,9,6,7.89c0-1.1,0.9-2,2-2S10,6.79,10,7.89z" fill="#2197F3"/></g></g></g><g id="Maps_3_"/><g id="Maps_2_"/><g id="Maps_1_"/><g id="Maps"/></svg>